# xmcd
#
# Track frame offsets:
#	150
#	17187
#	35904
#	54172
#	71588
#	90839
#	107479
#	124353
#	143133
#	161412
#	180108
#
# Disc length: 2658 seconds
#
# Revision: 1
# Processed by: cddbd v1.5.2PL0 Copyright (c) Steve Scherf et al.
# Submitted via: EasyCDDAExtractor 15.3.0.1
#
DISCID=860a600b
DTITLE=Lourdes Robles - Es Algo Mas
DYEAR=2010
DGENRE=Latin
TTITLE0=Como Aquel Viejo Bolero
TTITLE1=Bendita La Luz
TTITLE2=Sigo Siendo Reina
TTITLE3=Me Dedique A Perderte
TTITLE4=Algo Mas
TTITLE5=Que Me Des Tu Cariño
TTITLE6=Me Late
TTITLE7=Para Tu Amor
TTITLE8=Yo Puedo Hacer
TTITLE9=Entra En Mi Vida
TTITLE10=Te Veo Venir Soledad
EXTD=
EXTT0=
EXTT1=
EXTT2=
EXTT3=
EXTT4=
EXTT5=
EXTT6=
EXTT7=
EXTT8=
EXTT9=
EXTT10=
PLAYORDER=
